REM DIRINDEX 1\4,1\2\5,1\2\6,1\3\7,1\3\8
REM DIRNAME folder01,folder02,folder03,folder04,folder05,folder06,folder07,folder08
TITLE ""
FILE "016_Day08_Check3_Sentences.mp3" MP3
  TRACK 01 AUDIO
    TITLE "0:"
    INDEX 01 00:00:00
  TRACK 02 AUDIO
    TITLE "4:cjc124_0496"
    INDEX 01 00:00:25
  TRACK 03 AUDIO
    TITLE "0:"
    INDEX 01 00:01:52
  TRACK 04 AUDIO
    TITLE "7:cjc124_0497"
    INDEX 01 00:02:26
  TRACK 05 AUDIO
    TITLE "0:"
    INDEX 01 00:05:05
  TRACK 06 AUDIO
    TITLE "8:cjc124_0498"
    INDEX 01 00:05:20
  TRACK 07 AUDIO
    TITLE "0:"
    INDEX 01 00:07:60
  TRACK 08 AUDIO
    TITLE "7:cjc124_0499"
    INDEX 01 00:08:23
  TRACK 09 AUDIO
    TITLE "0:"
    INDEX 01 00:11:05
  TRACK 10 AUDIO
    TITLE "8:cjc124_0500"
    INDEX 01 00:11:21
  TRACK 11 AUDIO
    TITLE "0:"
    INDEX 01 00:13:55
  TRACK 12 AUDIO
    TITLE "7:cjc124_0501"
    INDEX 01 00:14:19
  TRACK 13 AUDIO
    TITLE "0:"
    INDEX 01 00:17:02
  TRACK 14 AUDIO
    TITLE "8:cjc124_0502"
    INDEX 01 00:17:18
  TRACK 15 AUDIO
    TITLE "0:"
    INDEX 01 00:19:69
  TRACK 16 AUDIO
    TITLE "7:cjc124_0503"
    INDEX 01 00:20:30
  TRACK 17 AUDIO
    TITLE "0:"
    INDEX 01 00:22:50
  TRACK 18 AUDIO
    TITLE "8:cjc124_0504"
    INDEX 01 00:23:04
  TRACK 19 AUDIO
    TITLE "0:"
    INDEX 01 00:25:09
  TRACK 20 AUDIO
    TITLE "7:cjc124_0505"
    INDEX 01 00:25:45
  TRACK 21 AUDIO
    TITLE "0:"
    INDEX 01 00:27:65
  TRACK 22 AUDIO
    TITLE "8:cjc124_0506"
    INDEX 01 00:28:08
  TRACK 23 AUDIO
    TITLE "0:"
    INDEX 01 00:30:18
  TRACK 24 AUDIO
    TITLE "7:cjc124_0507"
    INDEX 01 00:30:54
  TRACK 25 AUDIO
    TITLE "0:"
    INDEX 01 00:33:13
  TRACK 26 AUDIO
    TITLE "8:cjc124_0508"
    INDEX 01 00:33:26
  TRACK 27 AUDIO
    TITLE "0:"
    INDEX 01 00:35:53
  TRACK 28 AUDIO
    TITLE "7:cjc124_0509"
    INDEX 01 00:36:13
  TRACK 29 AUDIO
    TITLE "0:"
    INDEX 01 00:39:17
  TRACK 30 AUDIO
    TITLE "8:cjc124_0510"
    INDEX 01 00:39:35
  TRACK 31 AUDIO
    TITLE "0:"
    INDEX 01 00:41:65
  TRACK 32 AUDIO
    TITLE "7:cjc124_0511"
    INDEX 01 00:42:27
  TRACK 33 AUDIO
    TITLE "0:"
    INDEX 01 00:45:10
  TRACK 34 AUDIO
    TITLE "8:cjc124_0512"
    INDEX 01 00:45:28
  TRACK 35 AUDIO
    TITLE "0:"
    INDEX 01 00:47:50
  TRACK 36 AUDIO
    TITLE "7:cjc124_0513"
    INDEX 01 00:48:14
  TRACK 37 AUDIO
    TITLE "0:"
    INDEX 01 00:50:52
  TRACK 38 AUDIO
    TITLE "8:cjc124_0514"
    INDEX 01 00:50:70
  TRACK 39 AUDIO
    TITLE "0:"
    INDEX 01 00:53:19
  TRACK 40 AUDIO
    TITLE "7:cjc124_0515"
    INDEX 01 00:53:62
  TRACK 41 AUDIO
    TITLE "0:"
    INDEX 01 00:56:74
  TRACK 42 AUDIO
    TITLE "8:cjc124_0516"
    INDEX 01 00:57:11
  TRACK 43 AUDIO
    TITLE "0:"
    INDEX 01 00:59:32
  TRACK 44 AUDIO
    TITLE "7:cjc124_0517"
    INDEX 01 00:59:71
  TRACK 45 AUDIO
    TITLE "0:"
    INDEX 01 01:03:02
  TRACK 46 AUDIO
    TITLE "8:cjc124_0518"
    INDEX 01 01:03:14
  TRACK 47 AUDIO
    TITLE "0:"
    INDEX 01 01:05:44
  TRACK 48 AUDIO
    TITLE "7:cjc124_0519"
    INDEX 01 01:06:06
  TRACK 49 AUDIO
    TITLE "0:"
    INDEX 01 01:09:69
  TRACK 50 AUDIO
    TITLE "8:cjc124_0520"
    INDEX 01 01:10:10
  TRACK 51 AUDIO
    TITLE "0:"
    INDEX 01 01:12:32
  TRACK 52 AUDIO
    TITLE "7:cjc124_0521"
    INDEX 01 01:12:70
  TRACK 53 AUDIO
    TITLE "0:"
    INDEX 01 01:15:01
  TRACK 54 AUDIO
    TITLE "8:cjc124_0522"
    INDEX 01 01:15:15
  TRACK 55 AUDIO
    TITLE "0:"
    INDEX 01 01:17:26
  TRACK 56 AUDIO
    TITLE "7:cjc124_0523"
    INDEX 01 01:17:65
  TRACK 57 AUDIO
    TITLE "0:"
    INDEX 01 01:20:57
  TRACK 58 AUDIO
    TITLE "8:cjc124_0524"
    INDEX 01 01:20:73
  TRACK 59 AUDIO
    TITLE "0:"
    INDEX 01 01:24:08
  TRACK 60 AUDIO
    TITLE "7:cjc124_0525"
    INDEX 01 01:24:43
  TRACK 61 AUDIO
    TITLE "0:"
    INDEX 01 01:26:58
  TRACK 62 AUDIO
    TITLE "8:cjc124_0526"
    INDEX 01 01:26:74
  TRACK 63 AUDIO
    TITLE "0:"
    INDEX 01 01:29:23
  TRACK 64 AUDIO
    TITLE "7:cjc124_0527"
    INDEX 01 01:29:60
  TRACK 65 AUDIO
    TITLE "0:"
    INDEX 01 01:31:71
  TRACK 66 AUDIO
    TITLE "8:cjc124_0528"
    INDEX 01 01:32:27
  TRACK 67 AUDIO
    TITLE "0:"
    INDEX 01 01:34:59
